# Blender 3.6.1
# www.blender.org
mtllib door.mtl
o Cube
v -0.196208 0.000000 1.000000
v -0.196208 3.024872 1.000000
v -0.196208 0.000000 -1.000000
v -0.196208 3.024872 -1.000000
v 0.217474 0.000000 1.000000
v 0.217474 3.024872 1.000000
v 0.217474 0.000000 -1.000000
v 0.217474 3.024872 -1.000000
v 0.179960 1.499165 0.234984
v 0.179960 1.499165 0.234984
v 0.179960 1.499165 0.234984
v 0.286677 1.499165 0.083365
v 0.286677 1.499165 0.083365
v 0.286677 1.499165 0.083365
v 0.283893 1.499165 -0.102024
v 0.283893 1.499165 -0.102024
v 0.283893 1.499165 -0.102024
v 0.172672 1.499165 -0.250371
v 0.172672 1.499165 -0.250371
v 0.172672 1.499165 -0.250371
v 0.179960 1.443327 0.234984
v 0.179960 1.443327 0.234984
v 0.179960 1.443327 0.234984
v 0.286677 1.443327 0.083365
v 0.286677 1.443327 0.083365
v 0.286677 1.443327 0.083365
v 0.283893 1.443327 -0.102024
v 0.283893 1.443327 -0.102024
v 0.283893 1.443327 -0.102024
v 0.172672 1.443327 -0.250371
v 0.172672 1.443327 -0.250371
v 0.172672 1.443327 -0.250371
v 0.169000 1.585386 0.234221
v 0.169000 1.585386 0.234221
v 0.169000 1.585386 0.234221
v 0.275717 1.585386 0.082602
v 0.275717 1.585386 0.082602
v 0.275717 1.585386 0.082602
v 0.272933 1.585386 -0.102788
v 0.272933 1.585386 -0.102788
v 0.272933 1.585386 -0.102788
v 0.161712 1.585386 -0.251135
v 0.161712 1.585386 -0.251135
v 0.161712 1.585386 -0.251135
v 0.169000 1.529548 0.234221
v 0.169000 1.529548 0.234221
v 0.169000 1.529548 0.234221
v 0.275717 1.529548 0.082602
v 0.275717 1.529548 0.082602
v 0.275717 1.529548 0.082602
v 0.272933 1.529548 -0.102788
v 0.272933 1.529548 -0.102788
v 0.272933 1.529548 -0.102788
v 0.161712 1.529548 -0.251135
v 0.161712 1.529548 -0.251135
v 0.161712 1.529548 -0.251135
v 0.169000 1.416379 0.235974
v 0.169000 1.416379 0.235974
v 0.169000 1.416379 0.235974
v 0.275717 1.416379 0.084355
v 0.275717 1.416379 0.084355
v 0.275717 1.416379 0.084355
v 0.272933 1.416379 -0.101034
v 0.272933 1.416379 -0.101034
v 0.272933 1.416379 -0.101034
v 0.161712 1.416379 -0.249381
v 0.161712 1.416379 -0.249381
v 0.161712 1.416379 -0.249381
v 0.169000 1.360540 0.235974
v 0.169000 1.360540 0.235974
v 0.169000 1.360540 0.235974
v 0.275717 1.360540 0.084355
v 0.275717 1.360540 0.084355
v 0.275717 1.360540 0.084355
v 0.272933 1.360540 -0.101034
v 0.272933 1.360540 -0.101034
v 0.272933 1.360540 -0.101034
v 0.161712 1.360540 -0.249381
v 0.161712 1.360540 -0.249381
v 0.161712 1.360540 -0.249381
v -0.244528 1.171246 0.300000
v -0.244528 1.171246 0.300000
v -0.244528 1.171246 0.300000
v -0.244528 1.771246 0.300000
v -0.244528 1.771246 0.300000
v -0.244528 1.771246 0.300000
v -0.244528 1.171246 -0.300000
v -0.244528 1.171246 -0.300000
v -0.244528 1.171246 -0.300000
v -0.244528 1.771246 -0.300000
v -0.244528 1.771246 -0.300000
v -0.244528 1.771246 -0.300000
v 0.003313 1.171246 0.300000
v 0.003313 1.171246 0.300000
v 0.003313 1.771246 0.300000
v 0.003313 1.771246 0.300000
v 0.003313 1.171246 -0.300000
v 0.003313 1.171246 -0.300000
v 0.003313 1.771246 -0.300000
v 0.003313 1.771246 -0.300000
v 0.127234 1.171246 0.300000
v 0.127234 1.171246 0.300000
v 0.127234 1.771246 -0.300000
v 0.127234 1.771246 -0.300000
v 0.127234 1.771246 0.300000
v 0.127234 1.771246 0.300000
v 0.127234 1.171246 -0.300000
v 0.127234 1.171246 -0.300000
v -0.244528 1.171246 -0.000000
v -0.244528 1.171246 -0.000000
v -0.244528 1.771246 0.000000
v -0.244528 1.771246 0.000000
v 0.251154 1.171246 -0.000000
v 0.251154 1.171246 -0.000000
v 0.251154 1.771246 0.000000
v 0.251154 1.771246 0.000000
v 0.003313 1.771246 0.000000
v 0.003313 1.171246 -0.000000
v 0.127234 1.771246 0.000000
v 0.127234 1.171246 -0.000000
v -0.244528 1.171246 0.150000
v -0.244528 1.171246 0.150000
v 0.251154 1.771246 0.150000
v 0.251154 1.771246 0.150000
v 0.003313 1.171246 0.150000
v 0.127234 1.171246 0.150000
v -0.244528 1.771246 0.150000
v -0.244528 1.771246 0.150000
v 0.251154 1.171246 0.150000
v 0.251154 1.171246 0.150000
v 0.003313 1.771246 0.150000
v 0.127234 1.771246 0.150000
v -0.244528 1.771246 -0.150175
v -0.244528 1.771246 -0.150175
v 0.251154 1.171246 -0.150175
v 0.251154 1.171246 -0.150175
v 0.003313 1.771246 -0.150175
v 0.127234 1.771246 -0.150175
v -0.244528 1.171246 -0.150175
v -0.244528 1.171246 -0.150175
v 0.251154 1.771246 -0.150175
v 0.251154 1.771246 -0.150175
v 0.003313 1.171246 -0.150175
v 0.127234 1.171246 -0.150175
v -0.120607 1.771246 0.300000
v -0.120607 1.771246 0.300000
v -0.120607 1.171246 -0.300000
v -0.120607 1.171246 -0.300000
v -0.120607 1.171246 0.300000
v -0.120607 1.171246 0.300000
v -0.120607 1.771246 -0.300000
v -0.120607 1.771246 -0.300000
v -0.120607 1.171246 -0.000000
v -0.120607 1.771246 0.000000
v -0.120607 1.171246 0.150000
v -0.120607 1.771246 0.150000
v -0.120607 1.771246 -0.150175
v -0.120607 1.171246 -0.150175
v 0.189194 1.171246 0.300000
v 0.189194 1.171246 0.300000
v 0.189194 1.171246 0.300000
v 0.189194 1.771246 -0.300000
v 0.189194 1.771246 -0.300000
v 0.189194 1.771246 -0.300000
v 0.189194 1.771246 0.300000
v 0.189194 1.771246 0.300000
v 0.189194 1.771246 0.300000
v 0.189194 1.171246 -0.300000
v 0.189194 1.171246 -0.300000
v 0.189194 1.171246 -0.300000
v 0.189194 1.771246 0.000000
v 0.189194 1.171246 -0.000000
v 0.189194 1.171246 0.150000
v 0.189194 1.771246 0.150000
v 0.189194 1.771246 -0.150175
v 0.189194 1.171246 -0.150175
v -0.244528 1.171246 0.225000
v -0.244528 1.171246 0.225000
v 0.251154 1.771246 0.225000
v 0.251154 1.771246 0.225000
v 0.251154 1.771246 0.225000
v 0.003313 1.171246 0.225000
v 0.127234 1.171246 0.225000
v -0.244528 1.771246 0.225000
v -0.244528 1.771246 0.225000
v 0.251154 1.171246 0.225000
v 0.251154 1.171246 0.225000
v 0.251154 1.171246 0.225000
v 0.003313 1.771246 0.225000
v 0.127234 1.771246 0.225000
v -0.120607 1.171246 0.225000
v -0.120607 1.771246 0.225000
v 0.189194 1.171246 0.225000
v 0.189194 1.771246 0.225000
v -0.244528 1.771246 -0.225087
v -0.244528 1.771246 -0.225087
v 0.251154 1.171246 -0.225087
v 0.251154 1.171246 -0.225087
v 0.251154 1.171246 -0.225087
v 0.003313 1.771246 -0.225087
v 0.127234 1.771246 -0.225087
v -0.244528 1.171246 -0.225087
v -0.244528 1.171246 -0.225087
v 0.251154 1.771246 -0.225087
v 0.251154 1.771246 -0.225087
v 0.251154 1.771246 -0.225087
v 0.003313 1.171246 -0.225087
v 0.127234 1.171246 -0.225087
v -0.120607 1.771246 -0.225087
v -0.120607 1.171246 -0.225087
v 0.189194 1.771246 -0.225087
v 0.189194 1.171246 -0.225087
v -0.180923 1.771246 0.300000
v -0.180923 1.771246 0.300000
v -0.180923 1.171246 -0.300000
v -0.180923 1.171246 -0.300000
v -0.180923 1.171246 0.300000
v -0.180923 1.171246 0.300000
v -0.180923 1.771246 -0.300000
v -0.180923 1.771246 -0.300000
v -0.180923 1.171246 -0.000000
v -0.180923 1.771246 0.000000
v -0.180923 1.171246 0.150000
v -0.180923 1.771246 0.150000
v -0.180923 1.771246 -0.150175
v -0.180923 1.171246 -0.150175
v -0.180923 1.771246 0.225000
v -0.180923 1.171246 0.225000
v -0.180923 1.171246 -0.225087
v -0.180923 1.771246 -0.225087
vn -1.0000 -0.0000 -0.0000
vn -0.0000 -0.0000 -1.0000
vn 1.0000 -0.0000 -0.0000
vn -0.0000 -0.0000 1.0000
vn -0.0000 -1.0000 -0.0000
vn -0.0000 1.0000 -0.0000
vn -0.9999 -0.0000 0.0150
vn 0.8178 -0.0000 0.5756
vn 0.9999 -0.0000 -0.0150
vn 0.8001 -0.0000 -0.5999
vn 0.8177 -0.0000 0.5756
vn 0.7709 -0.0000 0.6369
vn 0.7706 -0.0000 -0.6373
vt 0.375000 0.000000
vt 0.625000 0.000000
vt 0.625000 0.250000
vt 0.375000 0.250000
vt 0.625000 0.500000
vt 0.375000 0.500000
vt 0.625000 0.750000
vt 0.375000 0.750000
vt 0.625000 1.000000
vt 0.375000 1.000000
vt 0.125000 0.500000
vt 0.125000 0.750000
vt 0.875000 0.500000
vt 0.875000 0.750000
vt 0.000000 0.951057
vt 0.000000 0.819624
vt 0.000000 0.657164
vt -0.000000 0.525731
vt 0.048927 0.525731
vt 0.048927 0.951057
vt 0.048927 0.819624
vt 0.048927 0.657164
vt 0.375000 0.217921
vt 0.625000 0.217921
vt 0.375000 0.468786
vt 0.625000 0.468786
vt 0.343786 0.718750
vt 0.375000 0.718750
vt 0.343786 0.750000
vt 0.843750 0.718750
vt 0.875000 0.718750
vt 0.843750 0.750000
vt 0.843750 0.562500
vt 0.875000 0.562500
vt 0.875000 0.625000
vt 0.843750 0.625000
vt 0.343786 0.562500
vt 0.375000 0.562500
vt 0.375000 0.625000
vt 0.343786 0.625000
vt 0.625000 0.562500
vt 0.625000 0.625000
vt 0.375000 0.062500
vt 0.625000 0.062500
vt 0.625000 0.125000
vt 0.375000 0.125000
vt 0.375000 0.031250
vt 0.625000 0.031250
vt 0.875000 0.687500
vt 0.843750 0.687500
vt 0.375000 0.687500
vt 0.343786 0.687500
vt 0.625000 0.687500
vt 0.187500 0.625000
vt 0.250000 0.625000
vt 0.250000 0.687500
vt 0.187500 0.687500
vt 0.687427 0.625000
vt 0.750000 0.625000
vt 0.750000 0.687500
vt 0.687427 0.687500
vt 0.187500 0.562500
vt 0.250000 0.562500
vt 0.687427 0.562500
vt 0.750000 0.562500
vt 0.687427 0.718750
vt 0.750000 0.718750
vt 0.750000 0.750000
vt 0.687427 0.750000
vt 0.187500 0.718750
vt 0.250000 0.718750
vt 0.250000 0.750000
vt 0.187500 0.750000
vt 0.375000 0.812427
vt 0.625000 0.812427
vt 0.625000 0.875000
vt 0.375000 0.875000
vt 0.375000 0.312500
vt 0.625000 0.312500
vt 0.625000 0.375000
vt 0.375000 0.375000
vt 0.375000 0.281250
vt 0.625000 0.281250
vt 0.156250 0.718750
vt 0.156250 0.750000
vt 0.156250 0.562500
vt 0.156250 0.625000
vt 0.156250 0.687500
vt 0.812500 0.625000
vt 0.812500 0.687500
vt 0.812500 0.562500
vt 0.812500 0.718750
vt 0.812500 0.750000
vt 0.625000 0.937500
vt 0.375000 0.937500
vt 0.375000 0.781214
vt 0.625000 0.781214
vt 0.656214 0.718750
vt 0.656214 0.750000
vt 0.656214 0.562500
vt 0.656214 0.625000
vt 0.656214 0.687500
vt 0.312573 0.625000
vt 0.312573 0.687500
vt 0.312573 0.562500
vt 0.312573 0.718750
vt 0.312573 0.750000
vt 0.625000 0.437573
vt 0.375000 0.437573
vt 0.250000 0.532079
vt 0.312573 0.532079
vt 0.656214 0.532079
vt 0.687427 0.532079
vt 0.750000 0.532079
vt 0.812500 0.532079
vt 0.156250 0.532079
vt 0.187500 0.532079
vt 0.375000 0.532079
vt 0.625000 0.532079
vt 0.343786 0.532079
vt 0.843750 0.532079
vt 0.875000 0.532079
vt 0.625000 0.187500
vt 0.375000 0.187500
vt 0.625000 0.718750
vt 0.125000 0.687500
vt 0.125000 0.718750
vt 0.125000 0.532079
vt 0.125000 0.562500
vt 0.125000 0.625000
vt 0.625000 0.968750
vt 0.375000 0.968750
vt 0.656214 0.500000
vt 0.312573 0.500000
vt 0.343786 0.500000
vt 0.156250 0.500000
vt 0.812500 0.500000
vt 0.843750 0.500000
vt 0.187500 0.500000
vt 0.250000 0.500000
vt 0.687427 0.500000
vt 0.750000 0.500000
s 0
usemtl Material.003
f 1/1/1 2/2/1 4/3/1 3/4/1
f 3/4/2 4/3/2 8/5/2 7/6/2
f 7/6/3 8/5/3 6/7/3 5/8/3
f 5/8/4 6/7/4 2/9/4 1/10/4
f 3/11/5 7/6/5 5/8/5 1/12/5
f 8/5/6 4/13/6 2/14/6 6/7/6
f 11/15/6 13/16/6 15/17/6
f 11/15/6 15/17/6 19/18/6
f 30/19/7 22/20/7 10/15/7
f 30/19/7 10/15/7 18/18/7
f 9/15/8 21/20/8 24/21/8
f 9/15/8 24/21/8 12/16/8
f 14/16/9 26/21/9 28/22/9
f 14/16/9 28/22/9 16/17/9
f 17/17/10 29/22/10 32/19/10
f 17/17/10 32/19/10 20/18/10
f 31/19/5 27/22/5 25/21/5
f 31/19/5 25/21/5 23/20/5
f 35/15/6 37/16/6 39/17/6
f 35/15/6 39/17/6 43/18/6
f 54/19/7 46/20/7 34/15/7
f 54/19/7 34/15/7 42/18/7
f 33/15/8 45/20/8 48/21/8
f 33/15/11 48/21/11 36/16/11
f 38/16/9 50/21/9 52/22/9
f 38/16/9 52/22/9 40/17/9
f 41/17/10 53/22/10 56/19/10
f 41/17/10 56/19/10 44/18/10
f 55/19/5 51/22/5 49/21/5
f 55/19/5 49/21/5 47/20/5
f 59/15/6 61/16/6 63/17/6
f 59/15/6 63/17/6 67/18/6
f 78/19/7 70/20/7 58/15/7
f 78/19/7 58/15/7 66/18/7
f 57/15/8 69/20/8 72/21/8
f 57/15/8 72/21/8 60/16/8
f 62/16/9 74/21/9 76/22/9
f 62/16/9 76/22/9 64/17/9
f 65/17/10 77/22/10 80/19/10
f 65/17/10 80/19/10 68/18/10
f 79/19/5 75/22/5 73/21/5
f 79/19/5 73/21/5 71/20/5
f 217/23/4 213/24/4 84/3/4
f 217/23/4 84/3/4 81/4/4
f 202/25/1 195/26/1 90/5/1
f 202/25/1 90/5/1 87/6/1
f 212/27/5 168/28/5 197/29/5
f 194/30/6 167/31/6 180/32/6
f 192/33/6 146/34/6 96/35/6
f 192/33/6 96/35/6 189/36/6
f 210/37/5 147/38/5 97/39/5
f 210/37/5 97/39/5 207/40/5
f 148/38/2 152/41/2 100/42/2
f 148/38/2 100/42/2 98/39/2
f 101/43/4 105/44/4 95/45/4
f 101/43/4 95/45/4 93/46/4
f 159/47/4 165/48/4 105/44/4
f 159/47/4 105/44/4 101/43/4
f 189/36/6 96/35/6 106/49/6
f 189/36/6 106/49/6 190/50/6
f 207/40/5 97/39/5 107/51/5
f 207/40/5 107/51/5 208/52/5
f 98/39/2 100/42/2 104/53/2
f 98/39/2 104/53/2 108/51/2
f 125/54/5 118/55/5 120/56/5
f 125/54/5 120/56/5 126/57/5
f 137/58/6 117/59/6 119/60/6
f 137/58/6 119/60/6 138/61/6
f 155/62/5 153/63/5 118/55/5
f 155/62/5 118/55/5 125/54/5
f 157/64/6 154/65/6 117/59/6
f 157/64/6 117/59/6 137/58/6
f 175/66/6 171/67/6 115/68/6
f 175/66/6 115/68/6 141/69/6
f 173/70/5 172/71/5 113/72/5
f 173/70/5 113/72/5 129/73/5
f 136/74/3 142/75/3 116/76/3
f 136/74/3 116/76/3 114/77/3
f 121/78/1 127/79/1 111/80/1
f 121/78/1 111/80/1 109/81/1
f 177/82/1 184/83/1 127/79/1
f 177/82/1 127/79/1 121/78/1
f 193/84/5 173/70/5 129/73/5
f 193/84/5 129/73/5 187/85/5
f 191/86/5 155/62/5 125/54/5
f 191/86/5 125/54/5 182/87/5
f 182/87/5 125/54/5 126/57/5
f 182/87/5 126/57/5 183/88/5
f 117/59/6 131/89/6 132/90/6
f 117/59/6 132/90/6 119/60/6
f 154/65/6 156/91/6 131/89/6
f 154/65/6 131/89/6 117/59/6
f 171/67/6 174/92/6 123/93/6
f 171/67/6 123/93/6 115/68/6
f 114/77/3 116/76/3 124/94/3
f 114/77/3 124/94/3 130/95/3
f 198/96/3 205/97/3 142/75/3
f 198/96/3 142/75/3 136/74/3
f 211/98/6 175/66/6 141/69/6
f 211/98/6 141/69/6 204/99/6
f 209/100/6 157/64/6 137/58/6
f 209/100/6 137/58/6 200/101/6
f 200/101/6 137/58/6 138/61/6
f 200/101/6 138/61/6 201/102/6
f 118/55/5 143/103/5 144/104/5
f 118/55/5 144/104/5 120/56/5
f 153/63/5 158/105/5 143/103/5
f 153/63/5 143/103/5 118/55/5
f 172/71/5 176/106/5 135/107/5
f 172/71/5 135/107/5 113/72/5
f 109/81/1 111/80/1 133/108/1
f 109/81/1 133/108/1 139/109/1
f 221/110/5 226/111/5 158/105/5
f 221/110/5 158/105/5 153/63/5
f 230/112/6 225/113/6 157/64/6
f 230/112/6 157/64/6 209/100/6
f 222/114/6 224/115/6 156/91/6
f 222/114/6 156/91/6 154/65/6
f 228/116/5 223/117/5 155/62/5
f 228/116/5 155/62/5 191/86/5
f 225/113/6 222/114/6 154/65/6
f 225/113/6 154/65/6 157/64/6
f 223/117/5 221/110/5 153/63/5
f 223/117/5 153/63/5 155/62/5
f 216/118/2 220/119/2 152/41/2
f 216/118/2 152/41/2 148/38/2
f 229/120/5 215/118/5 147/38/5
f 229/120/5 147/38/5 210/37/5
f 227/121/6 214/122/6 146/34/6
f 227/121/6 146/34/6 192/33/6
f 93/46/4 95/45/4 145/123/4
f 93/46/4 145/123/4 149/124/4
f 120/56/5 144/104/5 176/106/5
f 120/56/5 176/106/5 172/71/5
f 201/102/6 138/61/6 175/66/6
f 201/102/6 175/66/6 211/98/6
f 119/60/6 132/90/6 174/92/6
f 119/60/6 174/92/6 171/67/6
f 183/88/5 126/57/5 173/70/5
f 183/88/5 173/70/5 193/84/5
f 126/57/5 120/56/5 172/71/5
f 126/57/5 172/71/5 173/70/5
f 138/61/6 119/60/6 171/67/6
f 138/61/6 171/67/6 175/66/6
f 190/50/6 106/49/6 167/31/6
f 190/50/6 167/31/6 194/30/6
f 208/52/5 107/51/5 168/28/5
f 208/52/5 168/28/5 212/27/5
f 108/51/2 104/53/2 164/125/2
f 108/51/2 164/125/2 170/28/2
f 132/90/6 190/50/6 194/30/6
f 132/90/6 194/30/6 174/92/6
f 102/126/5 183/88/5 193/84/5
f 102/126/5 193/84/5 161/127/5
f 224/115/6 227/121/6 192/33/6
f 224/115/6 192/33/6 156/91/6
f 218/128/5 228/116/5 191/86/5
f 218/128/5 191/86/5 150/129/5
f 94/130/5 182/87/5 183/88/5
f 94/130/5 183/88/5 102/126/5
f 150/129/5 191/86/5 182/87/5
f 150/129/5 182/87/5 94/130/5
f 161/127/5 193/84/5 187/85/5
f 82/4/1 85/3/1 184/83/1
f 82/4/1 184/83/1 177/82/1
f 131/89/6 189/36/6 190/50/6
f 131/89/6 190/50/6 132/90/6
f 156/91/6 192/33/6 189/36/6
f 156/91/6 189/36/6 131/89/6
f 174/92/6 194/30/6 180/32/6
f 174/92/6 180/32/6 123/93/6
f 130/95/3 124/94/3 181/131/3
f 130/95/3 181/131/3 188/132/3
f 144/104/5 208/52/5 212/27/5
f 144/104/5 212/27/5 176/106/5
f 103/53/6 201/102/6 211/98/6
f 103/53/6 211/98/6 162/125/6
f 226/111/5 229/120/5 210/37/5
f 226/111/5 210/37/5 158/105/5
f 219/119/6 230/112/6 209/100/6
f 219/119/6 209/100/6 151/41/6
f 99/42/6 200/101/6 201/102/6
f 99/42/6 201/102/6 103/53/6
f 151/41/6 209/100/6 200/101/6
f 151/41/6 200/101/6 99/42/6
f 162/125/6 211/98/6 204/99/6
f 143/103/5 207/40/5 208/52/5
f 143/103/5 208/52/5 144/104/5
f 158/105/5 210/37/5 207/40/5
f 158/105/5 207/40/5 143/103/5
f 176/106/5 212/27/5 197/29/5
f 176/106/5 197/29/5 135/107/5
f 139/109/1 133/108/1 195/26/1
f 139/109/1 195/26/1 202/25/1
f 91/5/6 196/133/6 230/112/6
f 91/5/6 230/112/6 219/119/6
f 140/134/5 203/135/5 229/120/5
f 140/134/5 229/120/5 226/111/5
f 83/11/5 178/136/5 228/116/5
f 83/11/5 228/116/5 218/128/5
f 128/137/6 185/138/6 227/121/6
f 128/137/6 227/121/6 224/115/6
f 185/138/6 86/13/6 214/122/6
f 185/138/6 214/122/6 227/121/6
f 203/135/5 88/6/5 215/118/5
f 203/135/5 215/118/5 229/120/5
f 89/6/2 92/5/2 220/119/2
f 89/6/2 220/119/2 216/118/2
f 122/139/5 110/140/5 221/110/5
f 122/139/5 221/110/5 223/117/5
f 134/141/6 112/142/6 222/114/6
f 134/141/6 222/114/6 225/113/6
f 178/136/5 122/139/5 223/117/5
f 178/136/5 223/117/5 228/116/5
f 112/142/6 128/137/6 224/115/6
f 112/142/6 224/115/6 222/114/6
f 196/133/6 134/141/6 225/113/6
f 196/133/6 225/113/6 230/112/6
f 110/140/5 140/134/5 226/111/5
f 110/140/5 226/111/5 221/110/5
f 149/124/4 145/123/4 213/24/4
f 149/124/4 213/24/4 217/23/4
f 160/127/12 186/85/12 179/131/12
f 160/127/12 179/131/12 166/31/12
s 1
f 206/97/13 199/29/13 169/28/13
f 206/97/13 169/28/13 163/125/13
