# Blender 3.6.1
# www.blender.org
mtllib lock_ring.mtl
o Plane
v 0.800101 -0.093064 -0.599865
v 0.999887 -0.093064 -0.015014
v 0.999887 0.093064 -0.015014
v 0.800101 0.093064 -0.599865
v 0.294703 0.093064 -0.955589
v -0.323261 0.093064 -0.946310
v -0.817751 0.093064 -0.575573
v -0.999887 0.093064 0.015014
v -0.800101 0.093064 0.599865
v -0.294703 0.093064 0.955589
v 0.323261 0.093064 0.946310
v 0.817751 0.093064 0.575573
v 0.294703 -0.093064 -0.955589
v -0.323261 -0.093064 -0.946310
v -0.817751 -0.093064 -0.575573
v -0.999887 -0.093064 0.015014
v -0.800101 -0.093064 0.599865
v -0.294703 -0.093064 0.955589
v 0.323261 -0.093064 0.946310
v 0.817751 -0.093064 0.575573
vn -0.0000 1.0000 -0.0000
vn -0.0000 -1.0000 -0.0000
vn -0.0150 -0.0000 -0.9999
vn 0.9556 -0.0000 0.2947
vn -0.5756 -0.0000 0.8178
vn -0.5999 -0.0000 -0.8001
vn 0.9463 -0.0000 -0.3233
vn 0.0150 -0.0000 0.9999
vn -0.9556 -0.0000 -0.2947
vn 0.5756 -0.0000 -0.8178
vn 0.5999 -0.0000 0.8001
vn -0.9463 -0.0000 0.3233
vt 0.250000 0.525731
vt 0.404508 0.475528
vt 0.500000 0.344095
vt 0.500000 0.181636
vt 0.404509 0.050203
vt 0.250000 -0.000000
vt 0.095491 0.050203
vt -0.000000 0.181636
vt -0.000000 0.344095
vt 0.095491 0.475528
vt 0.595492 0.475528
vt 0.750000 0.525731
vt 0.904509 0.475528
vt 1.000000 0.344096
vt 1.000000 0.181636
vt 0.904509 0.050203
vt 0.750000 0.000000
vt 0.595492 0.050203
vt 0.146780 0.688191
vt 0.195707 0.688191
vt 0.195707 0.525731
vt 0.146780 0.525731
vt 0.097853 0.819624
vt 0.146780 0.819624
vt 0.097853 0.688191
vt 0.000000 0.951057
vt 0.048927 0.951057
vt 0.048927 0.819624
vt 0.000000 0.819624
vt 0.048927 0.951057
vt 0.097853 0.951057
vt 0.097853 0.819624
vt 0.048927 0.819624
vt 0.146780 0.525731
vt 0.097853 0.525731
vt 0.048927 0.657164
vt 0.000000 0.657164
vt 0.097853 0.657164
vt 0.048927 0.657164
vt 0.146780 0.819624
vt 0.195707 0.819624
vt 0.048927 0.525731
vt -0.000000 0.525731
vt 0.097853 0.525731
vt 0.048927 0.525731
s 0
usemtl Material.003
f 4/1/1 5/2/1 6/3/1 7/4/1 8/5/1 9/6/1 10/7/1 11/8/1 12/9/1 3/10/1
f 1/3/2 2/11/2 20/12/2 19/13/2 18/14/2 17/15/2 16/16/2 15/17/2 14/18/2 13/4/2
f 5/19/3 13/20/3 14/21/3 6/22/3
f 12/23/4 20/24/4 2/19/4 3/25/4
f 9/26/5 17/27/5 18/28/5 10/29/5
f 6/30/6 14/31/6 15/32/6 7/33/6
f 3/25/7 2/19/7 1/34/7 4/35/7
f 10/29/8 18/28/8 19/36/8 11/37/8
f 7/33/9 15/32/9 16/38/9 8/39/9
f 4/40/10 1/41/10 13/20/10 5/19/10
f 11/37/11 19/36/11 20/42/11 12/43/11
f 8/39/12 16/38/12 17/44/12 9/45/12
